<svg xmlns="http://www.w3.org/2000/svg" viewBox="0 0 920 340" font-family="Segoe UI, sans-serif">
  <defs>
    <marker id="a" viewBox="0 0 10 10" refX="9" refY="5" markerWidth="7" markerHeight="7" orient="auto-start-reverse">
      <path d="M0,0 L10,5 L0,10 z" fill="#5a6b7b"/>
    </marker>
  </defs>
  <rect width="920" height="340" fill="#ffffff"/>
  <text x="460" y="34" text-anchor="middle" font-size="19" font-weight="600" fill="#22303c">QL Print Service — Datenfluss</text>

  <g font-size="13">
    <rect x="30" y="70" width="200" height="86" rx="12" fill="#eef3f8" stroke="#b9c8d6"/>
    <text x="130" y="105" text-anchor="middle" font-weight="600" fill="#22303c">Beliebige App</text>
    <text x="130" y="127" text-anchor="middle" fill="#5a6b7b">Chrome, PDF-Viewer, …</text>
    <text x="130" y="145" text-anchor="middle" fill="#5a6b7b">„Drucken“ / PDF</text>

    <rect x="360" y="70" width="210" height="86" rx="12" fill="#e7f2ea" stroke="#9fc4a8"/>
    <text x="465" y="99" text-anchor="middle" font-weight="600" fill="#22303c">Android-Druckdialog</text>
    <text x="465" y="121" text-anchor="middle" fill="#5a6b7b">Papierformat, Ränder, Kopien</text>
    <text x="465" y="139" text-anchor="middle" fill="#5a6b7b">(jede Etikettenlänge)</text>

    <rect x="700" y="70" width="190" height="86" rx="12" fill="#e9eef8" stroke="#a9b9dc"/>
    <text x="795" y="105" text-anchor="middle" font-weight="600" fill="#22303c">QL Print Service</text>
    <text x="795" y="127" text-anchor="middle" fill="#5a6b7b">PDF → Raster</text>
    <text x="795" y="145" text-anchor="middle" fill="#5a6b7b">Brother-Protokoll</text>

    <line x1="230" y1="113" x2="356" y2="113" stroke="#5a6b7b" stroke-width="1.6" marker-end="url(#a)"/>
    <line x1="570" y1="113" x2="696" y2="113" stroke="#5a6b7b" stroke-width="1.6" marker-end="url(#a)"/>

    <rect x="700" y="205" width="190" height="86" rx="12" fill="#f4eee7" stroke="#d3bfa4"/>
    <text x="795" y="240" text-anchor="middle" font-weight="600" fill="#22303c">Brother QL</text>
    <text x="795" y="262" text-anchor="middle" fill="#5a6b7b">z. B. QL-1110NWB</text>
    <text x="795" y="280" text-anchor="middle" fill="#5a6b7b">TCP 9100 (LAN)</text>

    <line x1="795" y1="156" x2="795" y2="201" stroke="#5a6b7b" stroke-width="1.6" marker-end="url(#a)"/>

    <rect x="30" y="205" width="600" height="86" rx="12" fill="#f6f7f8" stroke="#c4ccd2"/>
    <text x="60" y="233" font-weight="600" fill="#22303c">Verarbeitungspipeline im Dienst</text>
    <text x="60" y="257" fill="#5a6b7b">1 · PDF mit 300 dpi rendern   2 · Inhaltsblock erkennen &amp; zuschneiden (2 mm Rand)</text>
    <text x="60" y="277" fill="#5a6b7b">3 · Best-Fill-Orientierung   4 · skalieren &amp; platzieren   5 · Schwelle → Raster → ESC/P</text>
  </g>
</svg>
